<?xml version="1.0" standalone="no"?>
<!DOCTYPE svg PUBLIC "-//W3C//DTD SVG 20010904//EN"
 "http://www.w3.org/TR/2001/REC-SVG-20010904/DTD/svg10.dtd">
<svg version="1.0" xmlns="http://www.w3.org/2000/svg"
 width="500.000000pt" height="500.000000pt" viewBox="0 0 500.000000 500.000000"
 preserveAspectRatio="xMidYMid meet">

<g transform="translate(0.000000,500.000000) scale(0.100000,-0.100000)"
fill="#dc2626" stroke="none">
<path d="M490 4083 c-72 -8 -260 -46 -265 -53 -12 -20 21 -19 127 1 162 31
328 31 433 1 211 -61 447 -237 620 -462 l45 -58 0 -839 c0 -919 1 -903 -60
-1024 -42 -82 -100 -142 -173 -179 l-60 -30 329 1 c299 1 325 2 289 15 -112
41 -222 156 -265 279 l-25 70 -3 833 c-2 457 1 832 5 832 9 -1 80 -95 140
-185 110 -167 186 -324 490 -1010 327 -739 463 -984 694 -1252 68 -79 190
-188 294 -263 223 -160 376 -208 698 -217 192 -5 197 -5 197 14 0 19 -6 20
-147 19 -127 -1 -158 2 -218 21 -104 33 -188 88 -290 188 -204 202 -369 513
-580 1095 -43 118 -86 233 -95 255 l-17 40 303 575 c167 316 315 595 329 620
l25 45 0 -840 c0 -910 -1 -918 -55 -1024 -18 -37 -40 -61 -72 -81 l-47 -30
395 0 c292 1 389 3 374 12 -70 38 -119 113 -141 217 -21 101 -21 1671 1 1754
23 90 51 135 103 168 l46 29 -269 -2 -269 -3 -360 -696 c-199 -382 -365 -696
-371 -697 -5 -1 -47 80 -93 180 -112 248 -279 584 -342 688 -184 302 -376 525
-587 682 -243 181 -444 266 -723 303 -95 13 -321 18 -410 8z"/>
</g>
</svg>
